<?xml version="1.0" encoding="UTF-8"?>
<mxfile host="app.diagrams.net" modified="2025-01-09T00:00:00.000Z" agent="5.0" etag="sample" version="24.0.0" type="device">
  <diagram name="System Architecture" id="cursor-demo-architecture">
    <mxGraphModel dx="1426" dy="794" grid="1" gridSize="10" guides="1" tooltips="1" connect="1" arrows="1" fold="1" page="1" pageScale="1" pageWidth="827" pageHeight="1169" math="0" shadow="0">
      <root>
        <mxCell id="0" />
        <mxCell id="1" parent="0" />
        <!-- Title -->
        <mxCell id="title-1" value="Cursor AI 統合アーキテクチャ" style="text;html=1;strokeColor=none;fillColor=none;align=center;verticalAlign=middle;whiteSpace=wrap;rounded=0;fontSize=24;fontStyle=1;" parent="1" vertex="1">
          <mxGeometry x="260" y="40" width="300" height="40" as="geometry" />
        </mxCell>
        
        <!-- Frontend Layer -->
        <mxCell id="frontend-group" value="" style="rounded=1;whiteSpace=wrap;html=1;fillColor=#e1d5e7;strokeColor=#9673a6;strokeWidth=2;dashed=1;" parent="1" vertex="1">
          <mxGeometry x="80" y="120" width="660" height="140" as="geometry" />
        </mxCell>
        <mxCell id="frontend-label" value="フロントエンド層" style="text;html=1;strokeColor=none;fillColor=none;align=left;verticalAlign=top;whiteSpace=wrap;rounded=0;fontSize=14;fontStyle=1;" parent="1" vertex="1">
          <mxGeometry x="90" y="130" width="120" height="20" as="geometry" />
        </mxCell>
        
        <!-- Frontend Components -->
        <mxCell id="cursor-ide" value="Cursor IDE" style="rounded=1;whiteSpace=wrap;html=1;fillColor=#dae8fc;strokeColor=#6c8ebf;fontSize=12;" parent="1" vertex="1">
          <mxGeometry x="120" y="170" width="120" height="60" as="geometry" />
        </mxCell>
        <mxCell id="ai-chat" value="AI Chat Interface" style="rounded=1;whiteSpace=wrap;html=1;fillColor=#dae8fc;strokeColor=#6c8ebf;fontSize=12;" parent="1" vertex="1">
          <mxGeometry x="280" y="170" width="120" height="60" as="geometry" />
        </mxCell>
        <mxCell id="code-editor" value="Code Editor" style="rounded=1;whiteSpace=wrap;html=1;fillColor=#dae8fc;strokeColor=#6c8ebf;fontSize=12;" parent="1" vertex="1">
          <mxGeometry x="440" y="170" width="120" height="60" as="geometry" />
        </mxCell>
        <mxCell id="extensions" value="Extensions" style="rounded=1;whiteSpace=wrap;html=1;fillColor=#dae8fc;strokeColor=#6c8ebf;fontSize=12;" parent="1" vertex="1">
          <mxGeometry x="600" y="170" width="120" height="60" as="geometry" />
        </mxCell>
        
        <!-- API Layer -->
        <mxCell id="api-group" value="" style="rounded=1;whiteSpace=wrap;html=1;fillColor=#fff2cc;strokeColor=#d6b656;strokeWidth=2;dashed=1;" parent="1" vertex="1">
          <mxGeometry x="80" y="300" width="660" height="140" as="geometry" />
        </mxCell>
        <mxCell id="api-label" value="API / ミドルウェア層" style="text;html=1;strokeColor=none;fillColor=none;align=left;verticalAlign=top;whiteSpace=wrap;rounded=0;fontSize=14;fontStyle=1;" parent="1" vertex="1">
          <mxGeometry x="90" y="310" width="140" height="20" as="geometry" />
        </mxCell>
        
        <!-- API Components -->
        <mxCell id="ai-api" value="AI API Gateway" style="rounded=1;whiteSpace=wrap;html=1;fillColor=#ffe6cc;strokeColor=#d79b00;fontSize=12;" parent="1" vertex="1">
          <mxGeometry x="200" y="350" width="120" height="60" as="geometry" />
        </mxCell>
        <mxCell id="auth-service" value="認証サービス" style="rounded=1;whiteSpace=wrap;html=1;fillColor=#ffe6cc;strokeColor=#d79b00;fontSize=12;" parent="1" vertex="1">
          <mxGeometry x="360" y="350" width="120" height="60" as="geometry" />
        </mxCell>
        <mxCell id="project-api" value="プロジェクト管理" style="rounded=1;whiteSpace=wrap;html=1;fillColor=#ffe6cc;strokeColor=#d79b00;fontSize=12;" parent="1" vertex="1">
          <mxGeometry x="520" y="350" width="120" height="60" as="geometry" />
        </mxCell>
        
        <!-- Backend Layer -->
        <mxCell id="backend-group" value="" style="rounded=1;whiteSpace=wrap;html=1;fillColor=#d5e8d4;strokeColor=#82b366;strokeWidth=2;dashed=1;" parent="1" vertex="1">
          <mxGeometry x="80" y="480" width="660" height="140" as="geometry" />
        </mxCell>
        <mxCell id="backend-label" value="AI モデル層" style="text;html=1;strokeColor=none;fillColor=none;align=left;verticalAlign=top;whiteSpace=wrap;rounded=0;fontSize=14;fontStyle=1;" parent="1" vertex="1">
          <mxGeometry x="90" y="490" width="120" height="20" as="geometry" />
        </mxCell>
        
        <!-- AI Models -->
        <mxCell id="gpt4" value="GPT-4" style="rounded=1;whiteSpace=wrap;html=1;fillColor=#e6ffcc;strokeColor=#36393d;fontSize=12;" parent="1" vertex="1">
          <mxGeometry x="150" y="530" width="100" height="60" as="geometry" />
        </mxCell>
        <mxCell id="claude" value="Claude 3" style="rounded=1;whiteSpace=wrap;html=1;fillColor=#e6ffcc;strokeColor=#36393d;fontSize=12;" parent="1" vertex="1">
          <mxGeometry x="290" y="530" width="100" height="60" as="geometry" />
        </mxCell>
        <mxCell id="custom-model" value="Custom Models" style="rounded=1;whiteSpace=wrap;html=1;fillColor=#e6ffcc;strokeColor=#36393d;fontSize=12;" parent="1" vertex="1">
          <mxGeometry x="430" y="530" width="100" height="60" as="geometry" />
        </mxCell>
        <mxCell id="local-llm" value="Local LLM" style="rounded=1;whiteSpace=wrap;html=1;fillColor=#e6ffcc;strokeColor=#36393d;fontSize=12;" parent="1" vertex="1">
          <mxGeometry x="570" y="530" width="100" height="60" as="geometry" />
        </mxCell>
        
        <!-- Connections -->
        <mxCell id="conn1" style="edgeStyle=orthogonalEdgeStyle;rounded=0;orthogonalLoop=1;jettySize=auto;html=1;entryX=0.5;entryY=0;entryDx=0;entryDy=0;strokeWidth=2;strokeColor=#666666;" parent="1" source="cursor-ide" target="ai-api" edge="1">
          <mxGeometry relative="1" as="geometry" />
        </mxCell>
        <mxCell id="conn2" style="edgeStyle=orthogonalEdgeStyle;rounded=0;orthogonalLoop=1;jettySize=auto;html=1;entryX=0.5;entryY=0;entryDx=0;entryDy=0;strokeWidth=2;strokeColor=#666666;" parent="1" source="ai-chat" target="ai-api" edge="1">
          <mxGeometry relative="1" as="geometry" />
        </mxCell>
        <mxCell id="conn3" style="edgeStyle=orthogonalEdgeStyle;rounded=0;orthogonalLoop=1;jettySize=auto;html=1;entryX=0.5;entryY=0;entryDx=0;entryDy=0;strokeWidth=2;strokeColor=#666666;" parent="1" source="code-editor" target="project-api" edge="1">
          <mxGeometry relative="1" as="geometry" />
        </mxCell>
        <mxCell id="conn4" style="edgeStyle=orthogonalEdgeStyle;rounded=0;orthogonalLoop=1;jettySize=auto;html=1;entryX=0.5;entryY=0;entryDx=0;entryDy=0;strokeWidth=2;strokeColor=#666666;" parent="1" source="ai-api" target="gpt4" edge="1">
          <mxGeometry relative="1" as="geometry" />
        </mxCell>
        <mxCell id="conn5" style="edgeStyle=orthogonalEdgeStyle;rounded=0;orthogonalLoop=1;jettySize=auto;html=1;entryX=0.5;entryY=0;entryDx=0;entryDy=0;strokeWidth=2;strokeColor=#666666;" parent="1" source="ai-api" target="claude" edge="1">
          <mxGeometry relative="1" as="geometry" />
        </mxCell>
        
        <!-- Legend -->
        <mxCell id="legend-group" value="凡例" style="rounded=1;whiteSpace=wrap;html=1;fillColor=#f5f5f5;strokeColor=#666666;fontSize=12;fontStyle=1;align=left;verticalAlign=top;spacingTop=5;spacingLeft=10;" parent="1" vertex="1">
          <mxGeometry x="80" y="660" width="200" height="100" as="geometry" />
        </mxCell>
        <mxCell id="legend1" value="ユーザーインターフェース" style="rounded=1;whiteSpace=wrap;html=1;fillColor=#dae8fc;strokeColor=#6c8ebf;fontSize=10;" parent="1" vertex="1">
          <mxGeometry x="90" y="690" width="180" height="20" as="geometry" />
        </mxCell>
        <mxCell id="legend2" value="API / サービス" style="rounded=1;whiteSpace=wrap;html=1;fillColor=#ffe6cc;strokeColor=#d79b00;fontSize=10;" parent="1" vertex="1">
          <mxGeometry x="90" y="715" width="180" height="20" as="geometry" />
        </mxCell>
        <mxCell id="legend3" value="AI モデル" style="rounded=1;whiteSpace=wrap;html=1;fillColor=#e6ffcc;strokeColor=#36393d;fontSize=10;" parent="1" vertex="1">
          <mxGeometry x="90" y="740" width="180" height="20" as="geometry" />
        </mxCell>
      </root>
    </mxGraphModel>
  </diagram>
</mxfile>